:FULLY-SPECIFIED
:FORCE-ALL-JOINTS-BE-3DOF
:DEGREES
1
root 6.24314 16.836 -28.1378 9.0217 -2.52979 -3.05774
lfemur -20.3712 2.30257 -19.9954
ltibia 35.927 0 0
lfoot -38.654 3.93715 0
ltoes 38.9541 0 0
rfemur -19.4747 0.22019 19.5256
rtibia 36.0342 0 0
rfoot -30.3779 -10.4967 0
rtoes 21.4483 0 0
lowerback -2.05144 3.66971 -5.03766
upperback -2.66728 5.00355 3.49279
thorax -2.36397 2.67023 6.42441
lowerneck -9.84699 -2.36864 1.94815
upperneck -1.37933 -3.32542 -1.65382
head 1.16433 -1.69823 -0.975663
lclavicle -1.65488e-14 -3.69739e-14 0
lhumerus -41.7253 -10.8128 99.8312
lradius 34.5094 0 0
lwrist 2.17521 0 0
lhand -10.5949 9.65639 0
lfingers 7.12502 0 0
lthumb 15.4107 39.062 0
rclavicle -1.65488e-14 -3.69739e-14 0
rhumerus -43.273 -4.86223 -84.2703
rradius 40.4763 0 0
rwrist 9.89469 0 0
rhand -23.7965 -22.476 0
rfingers 7.12502 0 0
rthumb 2.67393 -52.439 0
2
root 6.24055 16.8379 -28.1326 9.06774 -2.55345 -3.02886
lfemur -20.3352 2.28762 -19.9912
ltibia 35.8151 -0 0
lfoot -38.5689 3.99027 0.000361364
ltoes 38.8972 -0 0
rfemur -19.3132 0.516892 19.5179
rtibia 35.7092 -0 0
rfoot -30.3103 -10.8033 -0.00165798
rtoes 21.3801 -0 0
lowerback -2.23107 3.64503 -4.92763
upperback -2.6301 4.97453 3.40699
thorax -2.20321 2.64518 6.28731
lowerneck -9.85217 -2.35246 1.97988
upperneck -1.43491 -3.30885 -1.59366
head 1.14801 -1.68893 -0.960807
lclavicle 0 0 0
lhumerus -41.7468 -10.8792 99.7042
lradius 34.5976 -0 0
lwrist 2.29034 0 0
lhand -10.6673 9.05299 0.0034935
lfingers 0 0 0
lthumb 15.341 38.4638 0.00333613
rclavicle 0 0 0
rhumerus -43.1618 -4.8848 -84.4307
rradius 40.4353 -0 0
rwrist 9.93707 0 0
rhand -23.9099 -22.3671 -0.00098715
rfingers 0 0 0
rthumb 2.56438 -52.3312 -0.000943962
3
root 6.23562 16.8405 -28.127 9.11938 -2.58003 -2.99647
lfemur -20.2949 2.27085 -19.9864
ltibia 35.6894 -0 0
lfoot -38.4734 4.04988 0.000672924
ltoes 38.8333 -0 0
rfemur -19.1321 0.849856 19.5102
rtibia 35.3444 -0 0
rfoot -30.2344 -11.1474 -0.00308751
rtoes 21.3036 -0 0
lowerback -2.43268 3.61775 -4.80406
upperback -2.58832 4.94203 3.3107
thorax -2.02275 2.61754 6.13338
lowerneck -9.85798 -2.3343 2.01548
upperneck -1.49727 -3.2902 -1.52617
head 1.1297 -1.67849 -0.944141
lclavicle 0 0 0
lhumerus -41.7707 -10.9537 99.5617
lradius 34.6967 -0 0
lwrist 2.41952 0 0
lhand -10.7485 8.37588 0.00650598
lfingers 0 0 0
lthumb 15.2627 37.7926 0.00621292
rclavicle 0 0 0
rhumerus -43.0369 -4.90976 -84.6108
rradius 40.3893 -0 0
rwrist 9.98463 0 0
rhand -24.0372 -22.245 -0.00183826
rfingers 0 0 0
rthumb 2.44146 -52.2103 -0.00175783
4
root 6.22891 16.8436 -28.1212 9.17453 -2.60846 -2.96191
lfemur -20.2518 2.25293 -19.9814
ltibia 35.5553 -0 0
lfoot -38.3714 4.11355 0.000895965
ltoes 38.765 -0 0
rfemur -18.9386 1.2055 19.5031
rtibia 34.9549 -0 0
rfoot -30.1533 -11.5149 -0.00411091
rtoes 21.2219 -0 0
lowerback -2.64807 3.58909 -4.67199
upperback -2.54364 4.9074 3.20783
thorax -1.82993 2.58855 5.96889
lowerneck -9.86417 -2.3149 2.0535
upperneck -1.56383 -3.27019 -1.45412
head 1.11015 -1.66733 -0.926344
lclavicle 0 0 0
lhumerus -41.796 -11.0333 99.4095
lradius 34.8024 -0 0
lwrist 2.5575 0 0
lhand -10.8353 7.65271 0.00866284
lfingers 0 0 0
lthumb 15.1791 37.0757 0.00827261
rclavicle 0 0 0
rhumerus -42.9035 -4.93599 -84.8032
rradius 40.3401 -0 0
rwrist 10.0354 0 0
rhand -24.1731 -22.1145 -0.00244755
rfingers 0 0 0
rthumb 2.31016 -52.0811 -0.00234047
5
root 6.22096 16.847 -28.1152 9.23106 -2.63764 -2.92649
lfemur -20.2076 2.23455 -19.9762
ltibia 35.4177 -0 0
lfoot -38.2668 4.17884 0.001007
ltoes 38.695 -0 0
rfemur -18.7402 1.57022 19.4972
rtibia 34.5554 -0 0
rfoot -30.0702 -11.8918 -0.00462038
rtoes 21.1382 -0 0
lowerback -2.86901 3.56021 -4.53645
upperback -2.49777 4.87197 3.10232
thorax -1.63212 2.55939 5.80011
lowerneck -9.8705 -2.29501 2.09248
upperneck -1.63207 -3.24958 -1.38025
head 1.0901 -1.65588 -0.908098
lclavicle 0 0 0
lhumerus -41.8218 -11.1151 99.2533
lradius 34.9109 -0 0
lwrist 2.69899 0 0
lhand -10.9244 6.91111 0.00973661
lfingers 0 0 0
lthumb 15.0933 36.3405 0.00929801
rclavicle 0 0 0
rhumerus -42.7666 -4.96242 -85.0006
rradius 40.2897 -0 0
rwrist 10.0875 0 0
rhand -24.3125 -21.9807 -0.00275086
rfingers 0 0 0
rthumb 2.17553 -51.9486 -0.00263051
6
root 6.21231 16.8505 -28.1094 9.28688 -2.66649 -2.89154
lfemur -20.1639 2.21639 -19.9711
ltibia 35.2818 -0 0
lfoot -38.1636 4.24331 0.000999685
ltoes 38.6259 -0 0
rfemur -18.5443 1.93043 19.4925
rtibia 34.1609 -0 0
rfoot -29.9881 -12.264 -0.00458683
rtoes 21.0554 -0 0
lowerback -3.08726 3.53221 -4.40249
upperback -2.4524 4.83706 2.9981
thorax -1.43669 2.53117 5.63333
lowerneck -9.87674 -2.27535 2.13098
upperneck -1.69943 -3.22915 -1.30733
head 1.07031 -1.64457 -0.890083
lclavicle 0 0 0
lhumerus -41.8471 -11.1959 99.0992
lradius 35.018 -0 0
lwrist 2.83873 0 0
lhand -11.0123 6.17872 0.00966591
lfingers 0 0 0
lthumb 15.0086 35.6145 0.0092305
rclavicle 0 0 0
rhumerus -42.6312 -4.98805 -85.1956
rradius 40.2399 -0 0
rwrist 10.139 0 0
rhand -24.4502 -21.8485 -0.00273089
rfingers 0 0 0
rthumb 2.04256 -51.8178 -0.00261141
7
root 6.20349 16.854 -28.104 9.33987 -2.69392 -2.85838
lfemur -20.1225 2.19915 -19.9663
ltibia 35.1528 -0 0
lfoot -38.0655 4.30455 0.000885137
ltoes 38.5603 -0 0
rfemur -18.3583 2.27253 19.4892
rtibia 33.7863 -0 0
rfoot -29.9101 -12.6175 -0.00406123
rtoes 20.9769 -0 0
lowerback -3.29458 3.50609 -4.27518
upperback -2.40925 4.80398 2.8991
thorax -1.25102 2.50489 5.47486
lowerneck -9.88266 -2.25668 2.16754
upperneck -1.76337 -3.20966 -1.2381
head 1.05151 -1.63382 -0.872977
lclavicle 0 0 0
lhumerus -41.8708 -11.2726 98.9528
lradius 35.1197 -0 0
lwrist 2.97143 0 0
lhand -11.0958 5.48318 0.00855813
lfingers 0 0 0
lthumb 14.9282 34.925 0.00817262
rclavicle 0 0 0
rhumerus -42.5026 -5.01198 -85.3808
rradius 40.1927 -0 0
rwrist 10.1878 0 0
rhand -24.5809 -21.723 -0.00241797
rfingers 0 0 0
rthumb 1.91628 -51.6935 -0.00231218
8
root 6.19506 16.8572 -28.0991 9.38794 -2.71883 -2.82831
lfemur -20.0849 2.1835 -19.9619
ltibia 35.0357 -0 0
lfoot -37.9765 4.3601 0.00069051
ltoes 38.5007 -0 0
rfemur -18.1894 2.58292 19.4872
rtibia 33.4464 -0 0
rfoot -29.8394 -12.9382 -0.0031682
rtoes 20.9056 -0 0
lowerback -3.48273 3.48278 -4.15959
upperback -2.37006 4.77404 2.80927
thorax -1.08251 2.48149 5.33101
lowerneck -9.88801 -2.23974 2.20071
upperneck -1.82137 -3.19191 -1.17531
head 1.03446 -1.62407 -0.857461
lclavicle 0 0 0
lhumerus -41.8922 -11.3424 98.8199
lradius 35.212 -0 0
lwrist 3.09183 0 0
lhand -11.1716 4.85213 0.00667603
lfingers 0 0 0
lthumb 14.8552 34.2994 0.00637531
rclavicle 0 0 0
rhumerus -42.3859 -5.03333 -85.5489
rradius 40.1498 -0 0
rwrist 10.2321 0 0
rhand -24.6995 -21.6092 -0.0018863
rfingers 0 0 0
rthumb 1.80172 -51.5808 -0.00180377
9
root 6.18756 16.86 -28.0949 9.42898 -2.74013 -2.80264
lfemur -20.0527 2.17013 -19.9582
ltibia 34.9357 -0 0
lfoot -37.9005 4.40755 0.000455981
ltoes 38.4498 -0 0
rfemur -18.0452 2.848 19.4862
rtibia 33.1561 -0 0
rfoot -29.779 -13.212 -0.0020921
rtoes 20.8447 -0 0
lowerback -3.64345 3.46318 -4.06082
upperback -2.33656 4.74851 2.73253
thorax -0.938553 2.46185 5.20811
lowerneck -9.89258 -2.22527 2.22904
upperneck -1.87088 -3.17671 -1.1217
head 1.0199 -1.61573 -0.844213
lclavicle 0 0 0
lhumerus -41.9104 -11.402 98.7064
lradius 35.2908 -0 0
lwrist 3.19465 0 0
lhand -11.2362 4.31321 0.0044083
lfingers 0 0 0
lthumb 14.7929 33.7651 0.00420973
rclavicle 0 0 0
rhumerus -42.2861 -5.05129 -85.6925
rradius 40.1131 -0 0
rwrist 10.27 0 0
rhand -24.8008 -21.5119 -0.00124562
rfingers 0 0 0
rthumb 1.70388 -51.4845 -0.00119112
10
root 6.18154 16.8623 -28.0917 9.46089 -2.75671 -2.78269
lfemur -20.0278 2.15973 -19.9553
ltibia 34.858 -0 0
lfoot -37.8414 4.44445 0.000230059
ltoes 38.4103 -0 0
rfemur -17.933 3.05418 19.4858
rtibia 32.9303 -0 0
rfoot -29.732 -13.425 -0.00105553
rtoes 20.7973 -0 0
lowerback -3.76847 3.44813 -3.98396
upperback -2.31048 4.72869 2.67284
thorax -0.826558 2.44678 5.11249
lowerneck -9.89613 -2.21402 2.25106
upperneck -1.90938 -3.16485 -1.08001
head 1.00858 -1.60924 -0.83391
lclavicle 0 0 0
lhumerus -41.9244 -11.4483 98.6182
lradius 35.3521 -0 0
lwrist 3.27462 0 0
lhand -11.2865 3.89405 0.00222403
lfingers 0 0 0
lthumb 14.7445 33.3496 0.00212385
rclavicle 0 0 0
rhumerus -42.2085 -5.06509 -85.8043
rradius 40.0846 -0 0
rwrist 10.2994 0 0
rhand -24.8796 -21.4363 -0.000628459
rfingers 0 0 0
rthumb 1.62778 -51.4096 -0.000600964
